<svg width="153" height="24" viewBox="0 0 153 24" fill="none" xmlns="http://www.w3.org/2000/svg">
<path d="M22.8 5.00541C22.8 3.97838 22.8 2.95135 22.8 1.92432C22.8 1.41081 22.5 1.1027 22.1 1.1027H22C21.5 1.1027 21.2 1.41081 21.2 1.92432C21.2 3.67027 21.2 5.31351 21.2 7.05946V9.62703L21 9.52432C20.9 9.42162 20.8 9.42162 20.8 9.31892C20.7 9.21622 20.5 9.11351 20.4 9.01081C19.3 8.08649 18 7.67568 16.8 7.67568C15.9 7.67568 15.1 7.88108 14.2 8.29189C13.4 8.7027 12.8 9.11351 12.2 9.72973C12.5 10.2432 12.8 10.7568 13 11.373C13.8 10.1405 15.2 9.31892 16.7 9.31892C17.9 9.31892 19.1 9.83243 19.9 10.6541C20.8 11.5784 21.2 12.7081 21.2 13.9405C21.2 15.173 20.7 16.3027 19.9 17.227C19.1 18.1514 17.9 18.5622 16.7 18.5622C15.1 18.5622 13.8 17.7405 13 16.5081C12.5 15.7892 12.3 14.9676 12.2 14.1459C12.2 14.0432 12.2 14.0432 12.2 13.9405V13.8378C12.2 13.7351 12.2 13.7351 12.2 13.6324C12.1 12.5027 11.9 11.5784 11.4 10.7568C11.2 10.3459 10.9 10.0378 10.6 9.72973C10.1 9.11351 9.4 8.7027 8.6 8.29189C7.9 7.88108 7 7.67568 6.1 7.67568C4.9 7.67568 3.6 8.08649 2.4 9.01081C2.3 9.11351 2.1 9.21622 2 9.31892C1.9 9.42162 1.9 9.42162 1.8 9.52432L1.6 9.62703V6.95676C1.6 5.21081 1.6 3.56757 1.6 1.82162C1.6 1.30811 1.3 1 0.8 1H0.7C0.3 1 0 1.41081 0 1.82162C0 2.84865 0 3.87568 0 4.9027C0 7.88108 0 10.8595 0 13.8378C0 15.5838 0.6 17.0216 1.8 18.2541C2.9 19.3838 4.5 20 6.1 20C6.9 20 7.8 19.7946 8.5 19.4865C9.3 19.0757 10 18.5622 10.6 17.9459C10.3 17.4324 10 16.9189 9.8 16.4054C9 17.6378 7.6 18.4595 6.1 18.4595C4.9 18.4595 3.8 17.9459 2.9 17.1243C2 16.2 1.6 15.0703 1.6 13.8378C1.6 12.6054 2.1 11.373 2.9 10.5514C3.8 9.62703 4.9 9.21622 6.1 9.21622C7.7 9.21622 9 10.0378 9.8 11.2703C10.3 11.9892 10.6 12.8108 10.6 13.7351V13.8378C10.6 13.9405 10.6 13.9405 10.6 14.0432C10.6 15.0703 10.9 16.0973 11.4 16.9189C11.6 17.3297 11.9 17.6378 12.2 17.9459C12.8 18.5622 13.5 19.0757 14.3 19.4865C15.1 19.7946 15.9 20 16.7 20C18.3 20 19.9 19.3838 21 18.2541C22.2 17.0216 22.8 15.4811 22.8 13.8378C22.8 10.9622 22.8 7.88108 22.8 5.00541Z" fill="#E0E0E0"/>
<path d="M149.305 19.627V16.002H152.955V19.627H149.305Z" fill="white"/>
<path d="M142.572 20.0021C138.847 20.0021 136.772 18.2021 136.572 15.4771H139.722C139.947 16.9521 140.997 17.6021 142.522 17.6021C144.022 17.6021 144.872 17.0271 144.872 16.1271C144.872 14.9021 143.247 14.7771 141.497 14.4271C139.197 13.9771 136.947 13.3521 136.947 10.5521C136.947 7.77715 139.247 6.45215 142.172 6.45215C145.547 6.45215 147.422 8.12715 147.672 10.7021H144.597C144.447 9.32715 143.572 8.82715 142.122 8.82715C140.797 8.82715 139.922 9.32715 139.922 10.2521C139.922 11.3521 141.622 11.4521 143.447 11.8271C145.597 12.2771 147.972 12.8771 147.972 15.8771C147.972 18.4521 145.772 20.0021 142.572 20.0021Z" fill="white"/>
<path d="M129.798 20.0021C125.548 20.0021 123.148 17.0271 123.148 13.2021C123.148 9.40215 125.723 6.45215 129.473 6.45215C133.598 6.45215 135.798 9.60215 135.798 14.1771H126.498C126.748 16.1521 127.848 17.3771 129.773 17.3771C131.098 17.3771 131.873 16.7771 132.248 15.8021H135.598C135.123 18.0771 133.098 20.0021 129.798 20.0021ZM129.523 9.07715C127.723 9.07715 126.848 10.1521 126.548 11.8271H132.248C132.148 10.2021 131.073 9.07715 129.523 9.07715Z" fill="white"/>
<path d="M118.134 19.627V1.75195H121.534V19.627H118.134Z" fill="white"/>
<path d="M109.745 24.0021C106.245 24.0021 104.095 22.5021 103.745 20.0021H107.12C107.395 20.8021 108.12 21.4271 109.695 21.4271C111.62 21.4271 112.545 20.5021 112.545 18.7521V17.3521H112.47C111.72 18.2021 110.745 18.8521 109.12 18.8521C106.27 18.8521 103.47 16.6021 103.47 12.7271C103.47 8.90215 105.77 6.45215 109.02 6.45215C110.62 6.45215 111.795 7.07715 112.57 8.15215H112.62V6.80215H115.895V18.6521C115.895 20.4521 115.32 21.6771 114.37 22.5521C113.295 23.5521 111.645 24.0021 109.745 24.0021ZM109.695 16.1271C111.845 16.1271 112.72 14.5521 112.72 12.6521C112.72 10.7771 111.72 9.17715 109.67 9.17715C107.945 9.17715 106.795 10.5271 106.795 12.6771C106.795 14.8521 107.945 16.1271 109.695 16.1271Z" fill="white"/>
<path d="M95.756 24.0021C92.256 24.0021 90.106 22.5021 89.756 20.0021H93.131C93.406 20.8021 94.131 21.4271 95.706 21.4271C97.631 21.4271 98.556 20.5021 98.556 18.7521V17.3521H98.481C97.731 18.2021 96.756 18.8521 95.131 18.8521C92.281 18.8521 89.481 16.6021 89.481 12.7271C89.481 8.90215 91.781 6.45215 95.031 6.45215C96.631 6.45215 97.806 7.07715 98.581 8.15215H98.631V6.80215H101.906V18.6521C101.906 20.4521 101.331 21.6771 100.381 22.5521C99.306 23.5521 97.656 24.0021 95.756 24.0021ZM95.706 16.1271C97.856 16.1271 98.731 14.5521 98.731 12.6521C98.731 10.7771 97.731 9.17715 95.681 9.17715C93.956 9.17715 92.806 10.5271 92.806 12.6771C92.806 14.8521 93.956 16.1271 95.706 16.1271Z" fill="white"/>
<path d="M81.8255 20.0021C77.8505 20.0021 75.1255 17.0521 75.1255 13.2271C75.1255 9.40215 77.8505 6.45215 81.8255 6.45215C85.8005 6.45215 88.5255 9.40215 88.5255 13.2271C88.5255 17.0521 85.8005 20.0021 81.8255 20.0021ZM81.8255 17.4021C83.9005 17.4021 85.0755 15.7271 85.0755 13.2271C85.0755 10.7271 83.9005 9.02715 81.8255 9.02715C79.7255 9.02715 78.5755 10.7271 78.5755 13.2271C78.5755 15.7271 79.7255 17.4021 81.8255 17.4021Z" fill="white"/>
<path d="M59.375 19.627V1.75195H67.375C69.3 1.75195 70.775 2.22695 71.7 3.05195C72.675 3.92695 73.125 5.00195 73.125 6.40195C73.125 8.22695 72 9.40195 70.325 9.97695V10.052C72.3 10.627 73.65 12.277 73.65 14.477C73.65 16.152 73.125 17.302 72.075 18.202C71.05 19.102 69.475 19.627 67.575 19.627H59.375ZM63 11.627V16.627H67.175C68.925 16.627 69.975 15.652 69.975 14.202C69.975 12.502 68.725 11.627 67.075 11.627H63ZM63 8.95195H66.925C68.5 8.95195 69.575 8.20195 69.575 6.80195C69.575 5.47695 68.6 4.70195 67 4.70195H63V8.95195Z" fill="white"/>
<path d="M41 0.626953V20.627" stroke="white"/>
</svg>
