<svg width="20" height="21" viewBox="0 0 20 21" fill="none" xmlns="http://www.w3.org/2000/svg">
<path d="M14.4126 2.3598C14.4126 1.94337 14.6715 1.66574 15.0598 1.66574H17.0014C17.3898 1.66574 17.6487 1.94337 17.6487 2.3598V4.58079C17.6487 4.99723 17.3898 5.27485 17.0014 5.27485H14.9304C14.5421 5.27485 14.2832 4.99723 14.2832 4.58079V2.3598H14.4126ZM9.88222 5.13604C11.1766 5.13604 12.3416 5.69128 13.2477 6.66297H19.2019V4.02554C19.2019 1.80455 17.5192 0 15.5776 0H5.48124V4.99723H4.7046V0.138812H4.31628C4.31628 0.138812 4.31628 0.138812 4.18684 0.138812V5.13604H3.41019V0.138812C3.28075 0.138812 3.02187 0.277624 2.89243 0.277624V4.99723H2.11579V0.832871C1.2097 1.52693 0.5625 2.77624 0.5625 4.02554V6.66297H6.38732C7.42285 5.69128 8.58782 5.13604 9.88222 5.13604Z" fill="white"/>
<path d="M9.87829 13.1872C8.45444 13.1872 7.16004 11.9379 7.16004 10.2721C7.16004 8.60638 8.325 7.35708 9.87829 7.35708C11.4316 7.35708 12.5965 8.60638 12.5965 10.2721C12.5965 11.9379 11.4316 13.1872 9.87829 13.1872ZM12.3377 7.35708C12.0788 7.07945 11.8199 6.94064 11.4316 6.66302C10.9138 6.38539 10.396 6.24658 9.87829 6.24658C9.36052 6.24658 8.84276 6.38539 8.325 6.66302C7.93668 6.80183 7.6778 7.07945 7.41892 7.35708C6.64227 8.05114 6.12451 9.16163 6.12451 10.2721C6.12451 12.4931 7.80724 14.2977 9.74885 14.2977C11.8199 14.2977 13.3732 12.4931 13.3732 10.2721C13.5026 9.02282 13.1143 8.05114 12.3377 7.35708Z" fill="white"/>
<path d="M4.31628 20.2677H15.5776C17.6487 20.2677 19.2019 18.4631 19.2019 16.2421V7.35815H13.7654C14.2832 8.19103 14.6715 9.16271 14.6715 10.2732C14.6715 13.0494 12.6005 15.4092 9.88222 15.4092C7.29341 15.4092 5.09292 13.0494 5.09292 10.2732C5.09292 9.16271 5.48124 8.19103 5.999 7.35815H0.5625V16.3809C0.5625 18.4631 2.24523 20.2677 4.31628 20.2677Z" fill="white"/>
</svg>
