<svg width="19" height="21" viewBox="0 0 19 21" fill="none" xmlns="http://www.w3.org/2000/svg">
<path d="M19.0033 18.8778C19.0033 19.7106 18.3561 20.2659 17.5794 20.2659H1.65822C0.881576 20.2659 0.234375 19.5718 0.234375 18.8778V1.5263C0.234375 0.693431 0.881576 0.138184 1.65822 0.138184H17.5794C18.3561 0.138184 19.0033 0.832243 19.0033 1.5263V18.8778Z" fill="white"/>
<path d="M12.9216 7.63452C11.3683 7.63452 10.7211 8.6062 10.3328 9.16145V7.91214H7.48511C7.48511 8.74502 7.48511 17.0737 7.48511 17.0737H10.3328V11.7989C10.3328 11.5213 10.3328 11.2436 10.4622 11.1048C10.5917 10.5496 11.1094 9.99432 11.8861 9.99432C12.9216 9.99432 13.3099 10.8272 13.3099 12.0765V16.9349H16.1576V11.7989C16.1576 9.02264 14.8632 7.63452 12.9216 7.63452Z" fill="black"/>
<path d="M4.63947 3.47021C3.60394 3.47021 3.08618 4.16427 3.08618 4.99714C3.08618 5.83002 3.73339 6.52407 4.63947 6.52407C5.67499 6.52407 6.19275 5.83002 6.19275 4.99714C6.19275 4.16427 5.54555 3.47021 4.63947 3.47021Z" fill="black"/>
<path d="M6.06522 7.91113H3.21753V17.0727H6.06522V7.91113Z" fill="black"/>
</svg>
